<?xml version="1.0" encoding="utf-8"?>
<!-- Generator: Adobe Illustrator 27.1.1, SVG Export Plug-In . SVG Version: 6.00 Build 0)  -->
<svg version="1.1" id="Layer_1" xmlns="http://www.w3.org/2000/svg" xmlns:xlink="http://www.w3.org/1999/xlink" x="0px" y="0px"
	 viewBox="0 0 131.7 31.2" style="enable-background:new 0 0 131.7 31.2;" xml:space="preserve">
<style type="text/css">
	.Arched_x0020_Green{fill:url(#SVGID_1_);stroke:#FFFFFF;stroke-width:0.25;stroke-miterlimit:1;}
	.st0{fill:#29211A;}
	.st1{fill:#42B0D5;}
	.st2{fill:#FFFFFF;}
</style>
<linearGradient id="SVGID_1_" gradientUnits="userSpaceOnUse" x1="-90.2702" y1="125.5566" x2="-89.5631" y2="124.8495">
	<stop  offset="0" style="stop-color:#3BA765"/>
	<stop  offset="0.9831" style="stop-color:#193626"/>
</linearGradient>
<polygon class="st0" points="38.2,14.9 38.2,3.6 41.2,3.6 45,12 48.7,3.6 51.6,3.6 51.6,14.9 49.1,14.9 49.1,8.3 46.3,14.9 
	43.6,14.9 40.8,8.3 40.8,14.9 "/>
<path class="st0" d="M55.6,14.9h-2.9l5-11.3h3.6l5,11.3h-2.9l-1-2.3l-5.9,0L55.6,14.9z M61.6,10.5l-2.1-4.8l-2,4.8H61.6z"/>
<polygon class="st0" points="67.5,14.9 67.5,3.6 78.2,3.6 78.2,5.9 70.1,5.9 70.1,8.1 77.1,8.1 77.1,10.3 70.1,10.3 70.1,12.6 
	78.3,12.6 78.3,14.9 "/>
<path class="st0" d="M80.4,14.9V3.6h9c1.2,0,1.9,0.7,1.9,1.9v3.8c0,0.9-0.8,1.7-2.3,1.7c-0.1,0-0.2,0-0.3,0l2.6,3.9h-2.9L86,11h-3
	v3.9H80.4z M83,8.8h5.7V5.9H83V8.8z"/>
<path class="st0" d="M96,14.9h-0.9c-1.2,0-1.7-0.7-1.7-1.7v-1.5H96v0.9h5.6v-2.3h-6.4c-1,0-1.8-0.7-1.8-1.6V5.3c0-1,0.8-1.7,1.8-1.7
	c1,0,7.3,0,7.3,0c1,0,1.7,0.7,1.7,1.8v1.3h-2.6V5.9H96v2.2h6.4c0.9,0,1.8,0.6,1.8,1.8v3.2c0,1.1-0.6,1.8-1.7,1.8H96z"/>
<polygon class="st0" points="106.7,14.9 106.7,3.6 109.3,3.6 109.3,8.1 114.4,3.6 118,3.6 112,8.8 118.3,14.9 114.5,14.9 109.3,9.7 
	109.3,14.9 "/>
<g>
	<path class="st0" d="M39.7,26.4C39.7,26.5,39.8,26.5,39.7,26.4l5.5,0.1c0.1,0,0.1,0,0.1,0.1v1c0,0.1,0,0.1-0.1,0.1h-6.7
		c-0.1,0-0.1,0-0.1-0.1v-8.8c0-0.1,0-0.1,0.1-0.1h1.1c0.1,0,0.1,0,0.1,0.1V26.4z"/>
	<path class="st0" d="M47.7,18.7C47.7,18.7,47.8,18.7,47.7,18.7l0.1,8.9c0,0.1,0,0.1-0.1,0.1h-1.1c-0.1,0-0.1,0-0.1-0.1v-8.8
		c0-0.1,0-0.1,0.1-0.1H47.7z"/>
	<path class="st0" d="M58.3,18.7C58.4,18.7,58.4,18.7,58.3,18.7l0.1,8.9c0,0.1,0,0.1-0.1,0.1h-1.2c-0.1,0-0.2-0.1-0.3-0.1l-5.8-7.3
		v7.3c0,0.1,0,0.1-0.1,0.1h-1.1c-0.1,0-0.1,0-0.1-0.1v-8.8c0-0.1,0-0.1,0.1-0.1h1.4c0.1,0,0.1,0,0.1,0.1l5.7,7.2v-7.2
		c0-0.1,0-0.1,0.1-0.1H58.3z"/>
	<path class="st0" d="M61.8,22.5C61.8,22.6,61.8,22.6,61.8,22.5l5.2,0.1c0.1,0,0.1,0,0.1,0.1v0.9c0,0.1,0,0.1-0.1,0.1h-5.1
		c-0.1,0-0.1,0-0.1,0.1v2.6c0,0.1,0,0.1,0.1,0.1H68c0.1,0,0.1,0,0.1,0.1v1c0,0.1,0,0.1-0.1,0.1h-7.4c-0.1,0-0.1,0-0.1-0.1v-8.8
		c0-0.1,0-0.1,0.1-0.1H68c0.1,0,0.1,0,0.1,0.1v1c0,0.1,0,0.1-0.1,0.1h-6.1c-0.1,0-0.1,0-0.1,0.1V22.5z"/>
	<path class="st0" d="M70.3,26.3C70.4,26.3,70.4,26.3,70.3,26.3l0.1,1.2c0,0,0,0.1,0,0.1l-0.6,1.3c0,0.1-0.1,0.1-0.1,0.1h-0.5
		c-0.1,0-0.1,0-0.1-0.1l0.5-1.3h-0.4c-0.1,0-0.1,0-0.1-0.1v-1.2c0-0.1,0-0.1,0.1-0.1H70.3z"/>
	<path class="st0" d="M76.2,26.4C76.2,26.5,76.2,26.5,76.2,26.4l5.5,0.1c0.1,0,0.1,0,0.1,0.1v1c0,0.1,0,0.1-0.1,0.1H75
		c-0.1,0-0.1,0-0.1-0.1v-8.8c0-0.1,0-0.1,0.1-0.1h1.1c0.1,0,0.1,0,0.1,0.1V26.4z"/>
	<path class="st0" d="M84.1,18.7C84.2,18.7,84.2,18.7,84.1,18.7l0.1,8.9c0,0.1,0,0.1-0.1,0.1H83c-0.1,0-0.1,0-0.1-0.1v-8.8
		c0-0.1,0-0.1,0.1-0.1H84.1z"/>
	<path class="st0" d="M95.3,20.5l-3,7.1c0,0.1-0.1,0.1-0.2,0.1h-1.2c-0.1,0-0.2,0-0.2-0.1l-3-7v7.1c0,0.1,0,0.1-0.1,0.1h-1.1
		c-0.1,0-0.1,0-0.1-0.1v-8.8c0-0.1,0-0.1,0.1-0.1H88c0.1,0,0.1,0,0.1,0.1l3.3,7.7l3.3-7.7c0,0,0.1-0.1,0.1-0.1h1.6
		c0.1,0,0.1,0,0.1,0.1v8.8c0,0.1,0,0.1-0.1,0.1h-1.1c-0.1,0-0.1,0-0.1-0.1V20.5z"/>
	<path class="st0" d="M99.8,18.7C99.9,18.7,99.9,18.7,99.8,18.7l0.1,8.9c0,0.1,0,0.1-0.1,0.1h-1.1c-0.1,0-0.1,0-0.1-0.1v-8.8
		c0-0.1,0-0.1,0.1-0.1H99.8z"/>
	<path class="st0" d="M104.8,19.9C104.8,19.9,104.8,19.8,104.8,19.9l-3.5-0.1c-0.1,0-0.1,0-0.1-0.1v-1c0-0.1,0-0.1,0.1-0.1h8.4
		c0.1,0,0.1,0,0.1,0.1v1c0,0.1,0,0.1-0.1,0.1h-3.5c-0.1,0-0.1,0-0.1,0.1v7.6c0,0.1,0,0.1-0.1,0.1h-1.1c-0.1,0-0.1,0-0.1-0.1V19.9z"
		/>
	<path class="st0" d="M112.3,22.5C112.3,22.6,112.4,22.6,112.3,22.5l5.2,0.1c0.1,0,0.1,0,0.1,0.1v0.9c0,0.1,0,0.1-0.1,0.1h-5.1
		c-0.1,0-0.1,0-0.1,0.1v2.6c0,0.1,0,0.1,0.1,0.1h6.1c0.1,0,0.1,0,0.1,0.1v1c0,0.1,0,0.1-0.1,0.1h-7.4c-0.1,0-0.1,0-0.1-0.1v-8.8
		c0-0.1,0-0.1,0.1-0.1h7.4c0.1,0,0.1,0,0.1,0.1v1c0,0.1,0,0.1-0.1,0.1h-6.1c-0.1,0-0.1,0-0.1,0.1V22.5z"/>
	<path class="st0" d="M126.1,18.7c1.5,0,2.3,0.7,2.3,2.3v4.4c0,1.5-0.7,2.3-2.3,2.3h-5.9c-0.1,0-0.1,0-0.1-0.1v-8.8
		c0-0.1,0-0.1,0.1-0.1H126.1z M121.4,19.8C121.4,19.8,121.3,19.9,121.4,19.8l-0.1,6.6c0,0.1,0,0.1,0.1,0.1h4.5
		c0.8,0,1.1-0.3,1.1-1.1V21c0-0.8-0.3-1.1-1.1-1.1H121.4z"/>
</g>
<g>
	<path class="st1" d="M27.4,25.5c0,1.6-1.3,2.9-2.9,2.9H6.1c-1.6,0-2.9-1.3-2.9-2.9V5.8c0-1.6,1.3-2.9,2.9-2.9h18.4
		c1.6,0,2.9,1.3,2.9,2.9V25.5z"/>
	<polygon class="st2" points="19.2,15 23.9,9 23.9,9 17,12.3 15.3,4.8 15.3,4.8 13.6,12.3 6.7,9 6.6,9 11.4,15 4.5,18.3 4.5,18.4 
		12.2,18.4 10.5,25.8 10.5,25.8 15.3,19.8 20.1,25.8 20.1,25.8 18.4,18.4 26.1,18.4 26.1,18.3 	"/>
</g>
</svg>
